# xmcd
#
# Track frame offsets: 
#        150
#        14685
#        31449
#        47083
#        64615
#        81237
#        97691
#        113185
#        126723
#        142843
#        162142
#        179590
#
# Disc length: 2630 seconds
#
# Revision: 3
# Processed by: cddbd v1.5.2PL0 Copyright (c) Steve Scherf et al.
# Submitted via: ExactAudioCopyFreeDBPlugin 1.0
#
DISCID=a00a440c
DTITLE=Sugababes - Sweet 7
DYEAR=2010
DGENRE=R&B
TTITLE0=Get Sexy
TTITLE1=Wear My Kiss
TTITLE2=About A Girl
TTITLE3=Wait For You
TTITLE4=Thank You For The Heartbreak
TTITLE5=Miss Everything Feat. Sean Kingston
TTITLE6=She's A Mess
TTITLE7=Give It To Me Now
TTITLE8=Crash And Burn
TTITLE9=No More You
TTITLE10=Sweet And Amazing (Make It The Best)
TTITLE11=Little Miss Perfect
EXTD=2010
EXTT0=
EXTT1=
EXTT2=
EXTT3=
EXTT4=
EXTT5=
EXTT6=
EXTT7=
EXTT8=
EXTT9=
EXTT10=
EXTT11=
PLAYORDER=
